<?xml version="1.0" encoding="utf-8"?>
<!-- Generator: Adobe Illustrator 21.1.0, SVG Export Plug-In . SVG Version: 6.00 Build 0)  -->
<svg version="1.1" id="Layer_1" xmlns="http://www.w3.org/2000/svg" xmlns:xlink="http://www.w3.org/1999/xlink" x="0px" y="0px"
	 viewBox="0 0 656 376" style="enable-background:new 0 0 656 376;" xml:space="preserve">
<style type="text/css">
	.st0{display:none;}
	.st1{fill:#F2F2F2;}
	.st2{fill:#666666;}
	.st3{opacity:0.48;}
	.st4{fill:#CCCCCC;}
	.st5{opacity:8.000000e-02;enable-background:new    ;}
	.st6{opacity:0.56;fill:#333333;enable-background:new    ;}
	.st7{fill:#333333;}
</style>
<g id="Layer_2" class="st0">
</g>
<g id="Layer_3">
</g>
<g id="Layer_1_1_">
	<g>
		<path class="st1" d="M490.1,235.6H352.8c-1.1,0-2-0.9-2-2v-39.4c0-1.1,0.9-2,2-2h137.3c1.1,0,2,0.9,2,2v39.4
			C492.1,234.7,491.2,235.6,490.1,235.6z"/>
		<path class="st2" d="M490.1,194.2v39.4H352.8v-39.4L490.1,194.2 M490.1,192.2H352.8c-1.1,0-2,0.9-2,2v39.4c0,1.1,0.9,2,2,2h137.3
			c1.1,0,2-0.9,2-2v-39.4C492.1,193.1,491.2,192.2,490.1,192.2L490.1,192.2z"/>
	</g>
	<g class="st3">
		<rect x="360.2" y="198.1" width="5.6" height="31.6"/>
	</g>
	<g class="st3">
		<rect x="371.7" y="198.1" width="5.6" height="31.6"/>
	</g>
	<g class="st3">
		<rect x="383.2" y="198.1" width="5.6" height="31.6"/>
	</g>
	<circle class="st2" cx="474.4" cy="205.1" r="4"/>
	<circle class="st2" cx="462.4" cy="205.1" r="4"/>
	<circle class="st4" cx="450.3" cy="205.1" r="4"/>
	<g>
		<path class="st1" d="M490.1,281H352.8c-1.1,0-2-0.9-2-2v-39.4c0-1.1,0.9-2,2-2h137.3c1.1,0,2,0.9,2,2V279
			C492.1,280.1,491.2,281,490.1,281z"/>
		<path class="st2" d="M490.1,239.6V279H352.8v-39.4H490.1 M490.1,237.6H352.8c-1.1,0-2,0.9-2,2V279c0,1.1,0.9,2,2,2h137.3
			c1.1,0,2-0.9,2-2v-39.4C492.1,238.5,491.2,237.6,490.1,237.6L490.1,237.6z"/>
	</g>
	<g class="st3">
		<rect x="360.2" y="243.5" width="5.6" height="31.6"/>
	</g>
	<g class="st3">
		<rect x="371.7" y="243.5" width="5.6" height="31.6"/>
	</g>
	<g class="st3">
		<rect x="383.2" y="243.5" width="5.6" height="31.6"/>
	</g>
	<circle class="st2" cx="474.5" cy="250.5" r="4"/>
	<circle class="st2" cx="462.5" cy="250.5" r="4"/>
	<circle class="st4" cx="450.3" cy="250.5" r="4"/>
	<g>
		<path class="st1" d="M490.1,326.4H352.8c-1.1,0-2-0.9-2-2V285c0-1.1,0.9-2,2-2h137.3c1.1,0,2,0.9,2,2v39.4
			C492.1,325.5,491.2,326.4,490.1,326.4z"/>
		<path class="st2" d="M490.1,285v39.4H352.8V285H490.1 M490.1,283H352.8c-1.1,0-2,0.9-2,2v39.4c0,1.1,0.9,2,2,2h137.3
			c1.1,0,2-0.9,2-2V285C492.1,283.9,491.2,283,490.1,283L490.1,283z"/>
	</g>
	<g class="st3">
		<rect x="360.2" y="288.9" width="5.6" height="31.6"/>
	</g>
	<g class="st3">
		<rect x="371.7" y="288.9" width="5.6" height="31.6"/>
	</g>
	<g class="st3">
		<rect x="383.2" y="288.9" width="5.6" height="31.6"/>
	</g>
	<circle class="st2" cx="474.5" cy="295.9" r="4"/>
	<circle class="st2" cx="462.5" cy="295.9" r="4"/>
	<circle class="st4" cx="450.3" cy="295.9" r="4"/>
	<g>
		<path class="st1" d="M490.1,371.7H352.8c-1.1,0-2-0.9-2-2v-39.4c0-1.1,0.9-2,2-2h137.3c1.1,0,2,0.9,2,2v39.4
			C492.1,370.8,491.2,371.7,490.1,371.7z"/>
		<path class="st2" d="M490.1,330.4v39.4H352.8v-39.4H490.1 M490.1,328.4H352.8c-1.1,0-2,0.9-2,2v39.4c0,1.1,0.9,2,2,2h137.3
			c1.1,0,2-0.9,2-2v-39.4C492.1,329.3,491.2,328.4,490.1,328.4L490.1,328.4z"/>
	</g>
	<g>
		<rect x="362.2" y="338.4" class="st2" width="5.6" height="23.3"/>
	</g>
	<g>
		<rect x="373.7" y="338.4" class="st2" width="5.6" height="23.3"/>
	</g>
	<g>
		<rect x="385.2" y="338.4" class="st2" width="5.6" height="23.3"/>
	</g>
	<circle class="st2" cx="474.5" cy="341.2" r="4"/>
	<circle class="st2" cx="462.5" cy="341.2" r="4"/>
	<circle class="st4" cx="450.4" cy="341.2" r="4"/>
	<rect x="247.7" y="368.9" class="st5" width="62.2" height="3.1"/>
	<g>
		<polygon class="st1" points="316,369.3 272.5,369.3 279.1,334 309.4,334 		"/>
		<path class="st6" d="M317.2,370.3h-45.9l7-37.3h31.9L317.2,370.3z M273.7,368.3h41.1l-6.3-33.3h-28.6L273.7,368.3z"/>
	</g>
	<g>
		<path class="st4" d="M426.6,340.1H162.2c-6.6,0-12-5.4-12-12V157.4c0-6.6,5.4-12,12-12h264.4c6.6,0,12,5.4,12,12v170.7
			C438.6,334.7,433.2,340.1,426.6,340.1z"/>
		<path class="st2" d="M426.6,341.1H162.2c-7.2,0-13-5.8-13-13V157.4c0-7.2,5.8-13,13-13h264.4c7.2,0,13,5.8,13,13v170.7
			C439.6,335.3,433.8,341.1,426.6,341.1z M162.2,146.4c-6.1,0-11,4.9-11,11v170.7c0,6.1,4.9,11,11,11h264.4c6.1,0,11-4.9,11-11
			V157.4c0-6.1-4.9-11-11-11H162.2z"/>
	</g>
	<g>
		<rect x="159.9" y="155.8" class="st1" width="269.1" height="153.3"/>
		<path class="st2" d="M426.9,157.8v149.3h-265V157.8H426.9 M428.9,155.8h-269v153.3H429V155.8H428.9z"/>
	</g>
	<path class="st7" d="M504,376H152c-2.2,0-4-1.8-4-4l0,0c0-2.2,1.8-4,4-4h352c2.2,0,4,1.8,4,4l0,0C508,374.2,506.2,376,504,376z"/>
	<path class="st7" d="M136,376h-24c-2.2,0-4-1.8-4-4l0,0c0-2.2,1.8-4,4-4h24c2.2,0,4,1.8,4,4l0,0C140,374.2,138.2,376,136,376z"/>
	<path class="st7" d="M544,376h-24c-2.2,0-4-1.8-4-4l0,0c0-2.2,1.8-4,4-4h24c2.2,0,4,1.8,4,4l0,0C548,374.2,546.2,376,544,376z"/>
	<path class="st7" d="M96,376h-8c-2.2,0-4-1.8-4-4l0,0c0-2.2,1.8-4,4-4h8c2.2,0,4,1.8,4,4l0,0C100,374.2,98.2,376,96,376z"/>
	<path class="st7" d="M568,376h-8c-2.2,0-4-1.8-4-4l0,0c0-2.2,1.8-4,4-4h8c2.2,0,4,1.8,4,4l0,0C572,374.2,570.2,376,568,376z"/>
	<g>
		<path class="st4" d="M301.3,241.8v-44.7h13.2v-14.2h-13.2v-5.8h-14.2v64.8c-11,3.1-19,13.2-19,25.1c0,14.4,11.7,26.1,26.1,26.1
			s26.1-11.7,26.1-26.1C320.4,254.9,312.3,244.9,301.3,241.8z M294.2,278.8c-6.6,0-11.9-5.3-11.9-11.9s5.3-11.9,11.9-11.9
			s11.9,5.3,11.9,11.9S300.8,278.8,294.2,278.8z"/>
		<path class="st2" d="M294.2,294c-15,0-27.1-12.2-27.1-27.1c0-11.8,7.8-22.3,19-25.9v-64.1c0-0.3,0.1-0.5,0.3-0.7s0.4-0.3,0.7-0.3
			h14.2c0.3,0,0.5,0.1,0.7,0.3s0.3,0.4,0.3,0.7v4.8h12.2c0.6,0,1,0.4,1,1v14.2c0,0.3-0.1,0.5-0.3,0.7s-0.4,0.3-0.7,0.3h-12.2v43
			c11.2,3.5,19,14,19,25.9C321.4,281.9,309.2,294,294.2,294L294.2,294z M288.1,178v63.8c0,0.4-0.3,0.8-0.7,1
			c-10.8,3-18.3,13-18.3,24.2c0,13.9,11.3,25.1,25.1,25.1l0,0c13.9,0,25.1-11.3,25.1-25.1c0-11.2-7.5-21.1-18.3-24.2
			c-0.4-0.1-0.7-0.5-0.7-1v-44.7c0-0.3,0.1-0.5,0.3-0.7s0.4-0.3,0.7-0.3h12.2v-12.2h-12.2c-0.3,0-0.5-0.1-0.7-0.3s-0.3-0.4-0.3-0.7
			v-4.8L288.1,178z M294.2,279.8c-7.1,0-12.9-5.8-12.9-12.9c0-3.4,1.3-6.7,3.8-9.1c2.4-2.4,5.7-3.8,9.1-3.8l0,0
			c3.4,0,6.7,1.3,9.1,3.8c2.4,2.4,3.8,5.7,3.8,9.1C307.1,274,301.3,279.8,294.2,279.8L294.2,279.8z M294.2,256L294.2,256
			c-6,0-10.9,4.9-10.9,10.9s4.9,10.9,10.9,10.9l0,0c6,0,10.9-4.9,10.9-10.9S300.2,256,294.2,256z"/>
	</g>
	<path class="st4" d="M245.4,248.1v-34.6h10.2v-11h-10.2V198h-11v50.1c-8.5,2.4-14.7,10.2-14.7,19.4c0,11.2,9.1,20.2,20.2,20.2
		s20.2-9.1,20.2-20.2C260.1,258.3,253.9,250.5,245.4,248.1z M239.9,276.8c-5.1,0-9.2-4.1-9.2-9.2s4.1-9.2,9.2-9.2
		c5.1,0,9.2,4.1,9.2,9.2S245,276.8,239.9,276.8z"/>
	<path class="st4" d="M196.9,248.1v-34.6h10.2v-11h-10.2V198h-11v50.1c-8.5,2.4-14.7,10.2-14.7,19.4c0,11.2,9.1,20.2,20.2,20.2
		c11.2,0,20.2-9.1,20.2-20.2C211.7,258.3,205.4,250.5,196.9,248.1z M191.4,276.8c-5.1,0-9.2-4.1-9.2-9.2s4.1-9.2,9.2-9.2
		c5.1,0,9.2,4.1,9.2,9.2S196.5,276.8,191.4,276.8z"/>
	<path class="st4" d="M354.1,248.1v-34.6h10.2v-11h-10.2V198h-11v50.1c-8.5,2.4-14.7,10.2-14.7,19.4c0,11.2,9.1,20.2,20.2,20.2
		s20.2-9.1,20.2-20.2C368.8,258.3,362.6,250.5,354.1,248.1z M348.6,276.8c-5.1,0-9.2-4.1-9.2-9.2s4.1-9.2,9.2-9.2s9.2,4.1,9.2,9.2
		S353.7,276.8,348.6,276.8z"/>
	<path class="st4" d="M402.8,248.1v-34.6H413v-11h-10.2V198h-11v50.1c-8.5,2.4-14.7,10.2-14.7,19.4c0,11.2,9.1,20.2,20.2,20.2
		s20.2-9.1,20.2-20.2C417.5,258.3,411.3,250.5,402.8,248.1z M397.3,276.8c-5.1,0-9.2-4.1-9.2-9.2s4.1-9.2,9.2-9.2s9.2,4.1,9.2,9.2
		S402.4,276.8,397.3,276.8z"/>
</g>
<g id="Layer_6">
</g>
<g id="Layer_4">
</g>
<g id="Layer_7">
</g>
<g id="Layer_5" class="st0">
</g>
</svg>
